<svg width="57" height="53" viewBox="0 0 57 53" fill="none" xmlns="http://www.w3.org/2000/svg">
<defs>
<linearGradient id="success-check-fill" x1="28.3981" y1="0" x2="28.3981" y2="53" gradientUnits="userSpaceOnUse">
<stop offset="0" stop-color="#4457C0"/>
<stop offset="1" stop-color="#2B9FDA"/>
</linearGradient>
</defs>
<path fill-rule="evenodd" clip-rule="evenodd" d="M18.5039 4.21011C19.7329 2.88709 21.2526 1.82634 22.9598 1.0999C24.667 0.373465 26.5218 -0.0016588 28.3981 5.51384e-06C32.3505 5.51384e-06 35.8922 1.63077 38.2922 4.21011C40.1642 4.08538 42.043 4.33808 43.8009 4.95103C45.5589 5.56399 47.155 6.52285 48.4806 7.76247C49.8085 8.9993 50.8357 10.4882 51.4925 12.1282C52.1493 13.7681 52.4204 15.5208 52.2874 17.2671C53.7046 18.4142 54.8408 19.8325 55.6188 21.4256C56.3967 23.0187 56.7983 24.7493 56.7961 26.5C56.7979 28.2509 56.3959 29.9817 55.6175 31.5748C54.839 33.1679 53.7023 34.586 52.2845 35.7329C52.4175 37.4792 52.1464 39.2319 51.4896 40.8718C50.8328 42.5118 49.8055 44.0007 48.4777 45.2375C47.1523 46.4766 45.5567 47.4352 43.7993 48.0481C42.0418 48.6611 40.1637 48.914 38.2922 48.7899C37.0632 50.1129 35.5435 51.1737 33.8363 51.9001C32.1291 52.6265 30.2744 53.0017 28.3981 53C26.5218 53.0017 24.667 52.6265 22.9598 51.9001C21.2526 51.1737 19.7329 50.1129 18.5039 48.7899C16.6322 48.915 14.7535 48.6627 12.9956 48.0502C11.2376 47.4377 9.64144 46.4794 8.31554 45.2403C6.98729 44.0031 5.95986 42.5137 5.30301 40.8733C4.64617 39.2328 4.37528 37.4797 4.50875 35.7329C3.0915 34.5858 1.95532 33.1675 1.17736 31.5744C0.399401 29.9813 -0.00213674 28.2507 8.55102e-06 26.5C8.55102e-06 22.8117 1.74758 19.5067 4.51166 17.2671C4.37843 15.5208 4.64943 13.7681 5.30628 12.1281C5.96313 10.4881 6.99043 8.9992 8.31846 7.76247C9.64377 6.52321 11.2393 5.56456 12.9968 4.95162C14.7542 4.33867 16.6324 4.08578 18.5039 4.21011ZM38.9126 21.5696C39.0874 21.3523 39.2138 21.1046 39.2845 20.8411C39.3552 20.5775 39.3688 20.3035 39.3243 20.035C39.2799 19.7665 39.1784 19.509 39.0258 19.2776C38.8732 19.0462 38.6726 18.8456 38.4357 18.6877C38.1989 18.5297 37.9305 18.4175 37.6465 18.3576C37.3625 18.2978 37.0686 18.2916 36.782 18.3393C36.4954 18.387 36.2219 18.4876 35.9775 18.6354C35.7332 18.7831 35.523 18.975 35.3592 19.1996L25.934 31.5119L21.2039 27.0979C20.7898 26.7379 20.2421 26.5418 19.6762 26.5512C19.1102 26.5605 18.5703 26.7744 18.17 27.1479C17.7698 27.5214 17.5406 28.0252 17.5306 28.5534C17.5206 29.0814 17.7307 29.5925 18.1165 29.979L24.6699 36.0944C24.8942 36.3035 25.1645 36.4645 25.4621 36.5663C25.7597 36.6681 26.0776 36.7083 26.3935 36.684C26.7094 36.6597 27.0159 36.5715 27.2916 36.4255C27.5674 36.2796 27.8058 36.0794 27.9903 35.8389L38.9126 21.5696Z" fill="white"/>
<path d="M38.9126 21.5696C39.0874 21.3523 39.2138 21.1046 39.2845 20.8411C39.3552 20.5775 39.3688 20.3035 39.3243 20.035C39.2799 19.7665 39.1784 19.509 39.0258 19.2776C38.8732 19.0462 38.6726 18.8456 38.4357 18.6877C38.1989 18.5297 37.9305 18.4175 37.6465 18.3576C37.3625 18.2978 37.0686 18.2916 36.782 18.3393C36.4954 18.387 36.2219 18.4876 35.9775 18.6354C35.7332 18.7831 35.523 18.975 35.3592 19.1996L25.934 31.5119L21.2039 27.0979C20.7898 26.7379 20.2421 26.5418 19.6762 26.5512C19.1102 26.5605 18.5703 26.7744 18.17 27.1479C17.7698 27.5214 17.5406 28.0252 17.5306 28.5534C17.5206 29.0814 17.7307 29.5925 18.1165 29.979L24.6699 36.0944C24.8942 36.3035 25.1645 36.4645 25.4621 36.5663C25.7597 36.6681 26.0776 36.7083 26.3935 36.684C26.7094 36.6597 27.0159 36.5715 27.2916 36.4255C27.5674 36.2796 27.8058 36.0794 27.9903 35.8389L38.9126 21.5696Z" fill="url(#success-check-fill)"/>
</svg>